<svg xmlns="http://www.w3.org/2000/svg" viewBox="0 0 200 200" width="200" height="200"><rect width="200" height="200" rx="44" fill="#0A0A0A"/><rect x="4" y="4" width="192" height="192" rx="40" fill="none" stroke="#FFC314" stroke-width="5"/><rect x="26" y="50" width="148" height="100" rx="14" fill="none" stroke="#FFFFFF" stroke-width="5"/><line x1="100" y1="50" x2="100" y2="150" stroke="#FFFFFF" stroke-width="5"/><circle cx="100" cy="100" r="24" fill="#FFC314" stroke="#FFFFFF" stroke-width="5"/><circle cx="92" cy="95" r="3.2" fill="#111"/><circle cx="108" cy="95" r="3.2" fill="#111"/><path d="M89,106 Q100,117 111,106" fill="none" stroke="#111" stroke-width="3.6" stroke-linecap="round"/><g transform="translate(54,92) scale(1.05)" fill="#FF14E0"><circle cx="0" cy="-17" r="9.5"/><path d="M-12,13 C-12,-2 -6,-6 0,-6 C6,-6 12,-2 12,13 Z"/></g><g transform="translate(146,92) scale(1.05)" fill="#29A8E0"><circle cx="0" cy="-17" r="9.5"/><path d="M-12,13 C-12,-2 -6,-6 0,-6 C6,-6 12,-2 12,13 Z"/></g><g transform="translate(70,134) scale(0.8)" fill="#FFC314"><circle cx="0" cy="-17" r="9.5"/><path d="M-12,13 C-12,-2 -6,-6 0,-6 C6,-6 12,-2 12,13 Z"/></g><g transform="translate(130,134) scale(0.8)" fill="#FFC314"><circle cx="0" cy="-17" r="9.5"/><path d="M-12,13 C-12,-2 -6,-6 0,-6 C6,-6 12,-2 12,13 Z"/></g></svg>
